<svg width="64" height="64" viewBox="0 0 64 64" fill="none" xmlns="http://www.w3.org/2000/svg">
  <rect width="64" height="64" rx="18" fill="#0F172A"/>
  <path d="M16 22C16 18.6863 18.6863 16 22 16H42C45.3137 16 48 18.6863 48 22V42C48 45.3137 45.3137 48 42 48H22C18.6863 48 16 45.3137 16 42V22Z" fill="url(#wallet-body)"/>
  <path d="M16 26C16 21.5817 19.5817 18 24 18H42C45.3137 18 48 20.6863 48 24V28H24C19.5817 28 16 31.5817 16 36V26Z" fill="url(#wallet-flap)"/>
  <path d="M20 36C20 33.7909 21.7909 32 24 32H50V44C50 46.2091 48.2091 48 46 48H24C21.7909 48 20 46.2091 20 44V36Z" fill="url(#wallet-pocket)"/>
  <circle cx="42" cy="40" r="3.5" fill="#F8FAFC"/>
  <defs>
    <linearGradient id="wallet-body" x1="18" y1="18" x2="48" y2="48" gradientUnits="userSpaceOnUse">
      <stop stop-color="#38BDF8"/>
      <stop offset="1" stop-color="#2563EB"/>
    </linearGradient>
    <linearGradient id="wallet-flap" x1="16" y1="18" x2="48" y2="28" gradientUnits="userSpaceOnUse">
      <stop stop-color="#93C5FD"/>
      <stop offset="1" stop-color="#3B82F6"/>
    </linearGradient>
    <linearGradient id="wallet-pocket" x1="20" y1="32" x2="50" y2="48" gradientUnits="userSpaceOnUse">
      <stop stop-color="#1D4ED8"/>
      <stop offset="1" stop-color="#0EA5E9"/>
    </linearGradient>
  </defs>
</svg>
